HIERARCHY
ROOT Hips
{
	OFFSET -1.602300 6.242603 43.997101
	CHANNELS 6 Xposition Yposition Zposition Zrotation Xrotation Yrotation
	JOINT Chest
	{
		OFFSET -0.204900 1.598101 7.917301
		CHANNELS 6 Xposition Yposition Zposition Zrotation Xrotation Yrotation
		JOINT Chest2
		{
			OFFSET 0.000000 0.000000 3.404099
			CHANNELS 6 Xposition Yposition Zposition Zrotation Xrotation Yrotation
			JOINT Neck
			{
				OFFSET 0.000000 0.000000 7.928600
				CHANNELS 6 Xposition Yposition Zposition Zrotation Xrotation Yrotation
				JOINT Head
				{
					OFFSET 0.000000 0.000000 2.173897
					CHANNELS 6 Xposition Yposition Zposition Zrotation Xrotation Yrotation
					End Site
					{
						OFFSET 0.000000 0.000001 10.404503
					}
				}
			}
			JOINT LeftCollar
			{
				OFFSET 2.833800 -1.396299 4.843300
				CHANNELS 6 Xposition Yposition Zposition Zrotation Xrotation Yrotation
				JOINT LeftShoulder
				{
					OFFSET 4.363600 0.000000 0.000000
					CHANNELS 6 Xposition Yposition Zposition Zrotation Xrotation Yrotation
					JOINT LeftElbow
					{
						OFFSET 0.000000 -0.000001 -10.306900
						CHANNELS 6 Xposition Yposition Zposition Zrotation Xrotation Yrotation
						JOINT LeftWrist
						{
							OFFSET 0.000000 -0.000001 -12.404900
							CHANNELS 6 Xposition Yposition Zposition Zrotation Xrotation Yrotation
							End Site
							{
								OFFSET 0.000000 0.000000 -2.173901
							}
						}
					}
				}
			}
			JOINT RightCollar
			{
				OFFSET -2.354800 -1.897200 5.063099
				CHANNELS 6 Xposition Yposition Zposition Zrotation Xrotation Yrotation
				JOINT RightShoulder
				{
					OFFSET -4.375800 0.000000 0.000000
					CHANNELS 6 Xposition Yposition Zposition Zrotation Xrotation Yrotation
					JOINT RightElbow
					{
						OFFSET 0.000000 -0.000001 -10.005001
						CHANNELS 6 Xposition Yposition Zposition Zrotation Xrotation Yrotation
						JOINT RightWrist
						{
							OFFSET 0.000000 -0.000001 -13.174900
							CHANNELS 6 Xposition Yposition Zposition Zrotation Xrotation Yrotation
							End Site
							{
								OFFSET 0.000000 0.000000 -2.173901
							}
						}
					}
				}
			}
		}
	}
	JOINT LeftHip
	{
		OFFSET 2.240600 0.386800 -2.614101
		CHANNELS 6 Xposition Yposition Zposition Zrotation Xrotation Yrotation
		JOINT LeftKnee
		{
			OFFSET 0.000000 -0.000001 -18.592899
			CHANNELS 6 Xposition Yposition Zposition Zrotation Xrotation Yrotation
			JOINT LeftAnkle
			{
				OFFSET 0.000000 -0.000001 -18.765800
				CHANNELS 6 Xposition Yposition Zposition Zrotation Xrotation Yrotation
				End Site
				{
					OFFSET 0.000000 -8.655000 0.000000
				}
			}
		}
	}
	JOINT RightHip
	{
		OFFSET -2.014900 -0.220900 -2.615898
		CHANNELS 6 Xposition Yposition Zposition Zrotation Xrotation Yrotation
		JOINT RightKnee
		{
			OFFSET 0.000000 -0.000001 -18.633900
			CHANNELS 6 Xposition Yposition Zposition Zrotation Xrotation Yrotation
			JOINT RightAnkle
			{
				OFFSET 0.000000 -0.000001 -18.285101
				CHANNELS 6 Xposition Yposition Zposition Zrotation Xrotation Yrotation
				End Site
				{
					OFFSET 0.000000 -7.524500 0.000000
				}
			}
		}
	}
}
MOTION
Frames: 7
Frame Time: 0.041667
5.685200 7.793605 42.568909 -2.379734 -0.443564 -3.658882 -0.204901 1.598103 7.917304 2.657741 0.133226 1.092597 -0.000000 0.000002 3.404104 -0.571980 -1.115453 -0.030233 0.000001 0.000000 7.928602 3.066884 6.540906 1.858380 0.000000 -0.000001 2.173899 -0.786068 -0.515964 -0.210490 2.833801 -1.396301 4.843302 -3.296578 5.300347 3.552257 4.363596 0.000006 0.000009 -54.882438 -19.196076 -59.510844 0.000003 0.000006 -10.306905 -158.840680 -122.080766 -140.616820 -0.000002 0.000005 -12.404904 -87.046656 162.313326 -87.290186 -2.354799 -1.897201 5.063099 17.716044 7.101734 6.337812 -4.375798 0.000004 0.000001 42.837703 -15.565602 40.032364 -0.000012 0.000003 -10.004992 -20.374557 -25.576569 -35.878349 -0.000003 -0.000003 -13.174882 -11.955513 -5.482181 -10.700915 2.240600 0.386802 -2.614093 -0.838685 -7.891206 -0.519325 -0.000002 0.000001 -18.592890 6.695370 30.716915 17.230762 -0.000000 0.000000 -18.765800 13.845960 2.238124 0.233162 -2.014899 -0.220897 -2.615897 -56.406851 -41.805088 -1.213895 0.000000 0.000007 -18.633894 54.356326 62.776474 -45.808334 0.000005 0.000004 -18.285099 -1.390368 39.456961 -26.166101
5.669400 7.771904 42.575104 -2.329998 -0.512716 -3.578673 -0.204900 1.598104 7.917316 2.602440 0.158488 1.043978 -0.000001 0.000000 3.404101 -0.507889 -1.148728 -0.024480 0.000000 0.000001 7.928607 3.028843 6.588927 1.822986 -0.000000 0.000002 2.173905 -0.792953 -0.548845 -0.217607 2.833801 -1.396299 4.843314 -3.372686 5.367791 3.621228 4.363597 0.000008 0.000001 -54.903373 -19.101172 -59.623180 -0.000003 0.000003 -10.306904 -159.160073 -121.966715 -140.906188 -0.000001 0.000007 -12.404913 -86.966599 162.279202 -87.209590 -2.354798 -1.897199 5.063106 17.757015 7.200671 6.231264 -4.375797 0.000004 0.000000 42.867114 -15.537111 40.208927 -0.000015 0.000004 -10.005003 -20.440499 -25.456887 -36.074460 -0.000004 0.000001 -13.174891 -11.908797 -5.575403 -10.876489 2.240600 0.386805 -2.614094 -0.900056 -7.771665 -0.601324 -0.000002 0.000000 -18.592894 6.598207 30.659575 17.270828 0.000000 -0.000002 -18.765800 13.911551 2.215061 0.240818 -2.014896 -0.220895 -2.615891 -56.007872 -41.614335 -0.970145 -0.000001 0.000006 -18.633896 53.918302 62.739666 -45.584040 0.000004 0.000004 -18.285101 -1.492117 39.644809 -25.733236
5.657499 7.751406 42.581703 -2.237410 -0.548306 -3.543458 -0.204900 1.598101 7.917300 2.506089 0.154932 1.044123 -0.000000 -0.000001 3.404098 -0.443635 -1.196775 -0.020664 0.000000 -0.000003 7.928605 2.995755 6.636673 1.789306 -0.000001 -0.000000 2.173905 -0.796192 -0.564017 -0.226049 2.833801 -1.396302 4.843308 -3.492668 5.451292 3.738819 4.363595 0.000006 0.000002 -54.873391 -18.996021 -59.783724 -0.000002 0.000003 -10.306901 -159.349119 -121.915475 -141.029883 -0.000003 0.000009 -12.404906 -86.974686 162.271170 -87.141275 -2.354800 -1.897201 5.063101 17.849943 7.329117 6.080573 -4.375798 0.000004 0.000006 42.904192 -15.461269 40.446505 -0.000010 0.000005 -10.004994 -20.528868 -25.354277 -36.270757 -0.000001 0.000002 -13.174893 -11.895006 -5.663443 -11.034031 2.240600 0.386801 -2.614095 -0.997499 -7.695496 -0.646986 -0.000001 -0.000001 -18.592896 6.546391 30.623017 17.296821 0.000000 -0.000002 -18.765797 13.934009 2.199588 0.179356 -2.014900 -0.220898 -2.615896 -55.669611 -41.491500 -0.721294 -0.000001 0.000008 -18.633892 53.057282 62.834653 -45.029071 0.000004 0.000003 -18.285099 -1.438156 39.943984 -25.120234
5.651400 7.732205 42.586811 -2.130699 -0.549634 -3.568855 -0.204900 1.598098 7.917303 2.397095 0.121653 1.107580 0.000000 0.000001 3.404106 -0.382614 -1.251103 -0.018551 0.000001 -0.000002 7.928607 2.971419 6.684512 1.754382 0.000000 0.000002 2.173907 -0.804264 -0.568711 -0.231494 2.833801 -1.396301 4.843307 -3.627375 5.539838 3.880443 4.363599 0.000006 0.000001 -54.812487 -18.895821 -59.969054 0.000003 0.000001 -10.306905 -159.395537 -121.926964 -140.983260 -0.000001 0.000012 -12.404907 -87.094679 162.254368 -87.101380 -2.354799 -1.897201 5.063101 17.995479 7.487709 5.924454 -4.375798 0.000002 -0.000001 42.928200 -15.336304 40.657258 -0.000007 0.000010 -10.005002 -20.554754 -25.398629 -36.354758 -0.000001 -0.000001 -13.174899 -12.013406 -5.726999 -11.200975 2.240600 0.386800 -2.614100 -1.099592 -7.657583 -0.635519 -0.000001 0.000001 -18.592903 6.513669 30.590344 17.317501 0.000000 0.000001 -18.765800 13.940817 2.192411 0.052274 -2.014899 -0.220901 -2.615904 -55.157476 -41.429639 -0.316855 -0.000001 0.000009 -18.633898 52.059787 62.874043 -44.491589 0.000004 0.000005 -18.285099 -1.397363 40.246883 -24.595146
5.646100 7.714606 42.592407 -2.012685 -0.523751 -3.578077 -0.204900 1.598101 7.917305 2.278925 0.061441 1.153970 0.000000 -0.000001 3.404101 -0.325758 -1.281834 -0.015185 0.000000 -0.000001 7.928601 2.956309 6.711640 1.718891 -0.000000 0.000000 2.173904 -0.821276 -0.570437 -0.232089 2.833800 -1.396299 4.843301 -3.707380 5.596930 3.954382 4.363599 0.000005 0.000003 -54.762930 -18.872286 -60.101778 0.000003 0.000005 -10.306898 -159.361619 -121.988094 -140.822026 -0.000008 0.000010 -12.404912 -87.289913 162.228058 -87.099809 -2.354801 -1.897201 5.063101 18.102071 7.614690 5.850294 -4.375799 0.000003 0.000010 43.014335 -15.190059 40.764878 -0.000005 0.000007 -10.004993 -20.680841 -25.475596 -36.384373 -0.000001 -0.000002 -13.174895 -12.086959 -5.770677 -11.376256 2.240600 0.386801 -2.614091 -1.213758 -7.657782 -0.637674 -0.000001 0.000000 -18.592899 6.511285 30.574068 17.322198 0.000000 -0.000001 -18.765799 13.923312 2.184265 -0.128105 -2.014901 -0.220899 -2.615896 -54.429501 -41.338494 0.224195 0.000000 0.000005 -18.633896 51.202861 62.719353 -44.218255 0.000004 0.000005 -18.285099 -1.491265 40.481957 -24.382925
5.640699 7.698405 42.599308 -1.916055 -0.473654 -3.574147 -0.204902 1.598106 7.917310 2.183901 -0.021156 1.182565 -0.000000 -0.000001 3.404094 -0.272160 -1.285066 -0.010203 0.000000 -0.000001 7.928601 2.946838 6.721283 1.691096 -0.000000 0.000002 2.173897 -0.843642 -0.576488 -0.236302 2.833801 -1.396301 4.843306 -3.743671 5.621381 3.965778 4.363599 0.000004 0.000001 -54.720532 -18.918717 -60.178270 -0.000002 0.000006 -10.306900 -159.292552 -122.068048 -140.601507 0.000000 0.000007 -12.404910 -87.509845 162.187145 -87.156608 -2.354799 -1.897202 5.063103 18.170596 7.710463 5.862987 -4.375797 0.000003 0.000003 43.125633 -15.068130 40.789722 -0.000008 0.000005 -10.004994 -20.899493 -25.528324 -36.411790 -0.000004 0.000001 -13.174902 -12.078288 -5.810881 -11.553569 2.240599 0.386804 -2.614101 -1.308074 -7.690508 -0.656123 -0.000001 0.000001 -18.592899 6.547278 30.577128 17.312054 -0.000000 -0.000000 -18.765797 13.976716 2.165553 -0.341865 -2.014899 -0.220895 -2.615895 -53.439332 -41.205551 0.902432 -0.000001 0.000005 -18.633892 50.719363 62.309801 -44.389796 0.000005 0.000004 -18.285103 -1.788097 40.562724 -24.621652
5.636400 7.682107 42.605602 -1.891549 -0.416740 -3.570850 -0.204900 1.598100 7.917305 2.162900 -0.111411 1.200155 -0.000000 -0.000000 3.404098 -0.221926 -1.265895 -0.003603 -0.000000 -0.000001 7.928601 2.933808 6.726507 1.685249 -0.000000 0.000001 2.173908 -0.861526 -0.596367 -0.246482 2.833801 -1.396301 4.843305 -3.779080 5.630330 3.963444 4.363598 0.000005 0.000005 -54.671826 -18.983275 -60.232494 0.000003 0.000009 -10.306900 -159.227214 -122.142661 -140.389129 -0.000001 0.000004 -12.404908 -87.703304 162.111507 -87.296313 -2.354799 -1.897202 5.063107 18.242663 7.802448 5.920512 -4.375799 0.000002 0.000003 43.126381 -15.051696 40.762962 -0.000010 0.000008 -10.004998 -21.073732 -25.535864 -36.454738 0.000000 -0.000003 -13.174893 -11.991983 -5.851382 -11.725698 2.240600 0.386800 -2.614100 -1.329626 -7.722855 -0.673595 -0.000002 0.000001 -18.592907 6.563495 30.569861 17.312026 0.000002 -0.000000 -18.765800 13.925233 2.115758 -0.528361 -2.014899 -0.220899 -2.615897 -52.370773 -41.067055 1.586576 -0.000000 0.000008 -18.633894 50.732600 61.724693 -44.972841 0.000004 0.000005 -18.285099 -2.240165 40.492514 -25.210068
